<?xml version="1.0" encoding="utf-8"?>
<!-- Generator: Adobe Illustrator 17.1.0, SVG Export Plug-In . SVG Version: 6.00 Build 0)  -->
<!DOCTYPE svg PUBLIC "-//W3C//DTD SVG 1.1//EN" "http://www.w3.org/Graphics/SVG/1.1/DTD/svg11.dtd">
<svg version="1.1" id="Layer_1" xmlns="http://www.w3.org/2000/svg" xmlns:xlink="http://www.w3.org/1999/xlink" x="0px" y="0px"
	 viewBox="0 0 595.28 841.89" enable-background="new 0 0 595.28 841.89" xml:space="preserve">
<circle fill="#1CB2AA" stroke="#FFFFFF" stroke-width="10" cx="297.64" cy="359.445" r="187"/>
<g>
	<g>
		<g>
			<path fill="#FFFFFF" d="M203.589,322.796h41.614V456.63h-41.614V322.796z M224.399,256.26c13.298,0,24.106,10.808,24.106,24.111
				c0,13.318-10.808,24.126-24.106,24.126c-13.334,0-24.111-10.808-24.111-24.126C200.288,267.068,211.065,256.26,224.399,256.26"/>
			<path fill="#FFFFFF" d="M271.292,322.796h39.904v18.279h0.568c5.554-10.519,19.126-21.616,39.362-21.616
				c42.09,0,49.865,27.712,49.865,63.762v73.408h-41.548v-65.081c0-15.53-0.304-35.492-21.621-35.492
				c-21.646,0-24.948,16.909-24.948,34.366v66.207h-41.583V322.796z"/>
		</g>
	</g>
</g>
</svg>
