<?xml version="1.0" encoding="utf-8"?>
<!-- Generator: Adobe Illustrator 17.1.0, SVG Export Plug-In . SVG Version: 6.00 Build 0)  -->
<!DOCTYPE svg PUBLIC "-//W3C//DTD SVG 1.1//EN" "http://www.w3.org/Graphics/SVG/1.1/DTD/svg11.dtd">
<svg version="1.1" id="Layer_1" xmlns="http://www.w3.org/2000/svg" xmlns:xlink="http://www.w3.org/1999/xlink" x="0px" y="0px"
	 viewBox="0 0 595.28 841.89" enable-background="new 0 0 595.28 841.89" xml:space="preserve">
<circle fill="#1CB2AA" stroke="#FFFFFF" stroke-width="10" cx="297.64" cy="359.445" r="187"/>
<path id="_x31_28" fill="#FFFFFF" d="M427.64,277.927c-9.432,4.096-19.557,6.887-30.143,8.173c-0.079-0.192-0.163-0.377-0.242-0.567
	c11.216-6.562,19.88-17.01,24.139-29.505c-3.247,1.996-18.912,10.829-34.204,13.681c-9.972-10.942-24.329-17.809-40.298-17.809
	c-33.746,0-54.529,27.682-54.529,54.528c0,2.093,0.992,10.746,1.165,11.237c-45.338-0.986-85.537-22.802-111.425-56.256
	c-18.541,33.756,0.883,63.02,14.199,73.462c-7.736-0.133-15.096-1.799-21.788-4.719c1.412,25.966,20.193,47.294,44.924,52.604
	c-9.908,2.781-21.798,0.653-26.378-0.532c7.308,21.721,27.327,37.596,51.22,38.766c-36.57,26.874-76.007,24.129-76.638,24.121
	c23.179,13.886,50.297,22.062,79.28,21.876c106.218-0.686,160.754-94.955,154.272-162.603
	C412.822,298.963,422.221,289.558,427.64,277.927z"/>
</svg>
